<svg width="28" height="24" viewBox="0 0 28 24" fill="none" xmlns="http://www.w3.org/2000/svg">
<path d="M20.6666 21.3333H23.3333V10.6667H15.3333V21.3333H18V13.3333H20.6666V21.3333ZM1.99996 21.3333V1.33333C1.99996 0.979711 2.14043 0.640573 2.39048 0.390524C2.64053 0.140476 2.97967 0 3.33329 0H22C22.3536 0 22.6927 0.140476 22.9428 0.390524C23.1928 0.640573 23.3333 0.979711 23.3333 1.33333V8H26V21.3333H27.3333V24H0.666626V21.3333H1.99996ZM7.33329 10.6667V13.3333H9.99996V10.6667H7.33329ZM7.33329 16V18.6667H9.99996V16H7.33329ZM7.33329 5.33333V8H9.99996V5.33333H7.33329Z" fill="white"/>
</svg>
