<svg width="28" height="28" viewBox="0 0 28 28" fill="none" xmlns="http://www.w3.org/2000/svg">
<path d="M14 12.6667C15.7681 12.6667 17.4638 13.369 18.714 14.6193C19.9642 15.8695 20.6666 17.5652 20.6666 19.3333V27.3333H7.33329V19.3333C7.33329 17.5652 8.03567 15.8695 9.28591 14.6193C10.5362 13.369 12.2318 12.6667 14 12.6667ZM5.05063 16.6747C4.83844 17.3904 4.71309 18.129 4.67729 18.8747L4.66663 19.3333V27.3333H0.666626V21.3333C0.666364 20.1834 1.09066 19.0739 1.85814 18.2176C2.62561 17.3613 3.68222 16.8185 4.82529 16.6933L5.05063 16.6747ZM22.9493 16.6747C24.1358 16.747 25.2501 17.2693 26.0648 18.135C26.8794 19.0007 27.3331 20.1446 27.3333 21.3333V27.3333H23.3333V19.3333C23.3333 18.4093 23.2 17.5173 22.9493 16.6747ZM5.33329 8.66666C6.21735 8.66666 7.06519 9.01785 7.69031 9.64297C8.31544 10.2681 8.66663 11.1159 8.66663 12C8.66663 12.884 8.31544 13.7319 7.69031 14.357C7.06519 14.9821 6.21735 15.3333 5.33329 15.3333C4.44924 15.3333 3.60139 14.9821 2.97627 14.357C2.35115 13.7319 1.99996 12.884 1.99996 12C1.99996 11.1159 2.35115 10.2681 2.97627 9.64297C3.60139 9.01785 4.44924 8.66666 5.33329 8.66666ZM22.6666 8.66666C23.5507 8.66666 24.3985 9.01785 25.0236 9.64297C25.6488 10.2681 26 11.1159 26 12C26 12.884 25.6488 13.7319 25.0236 14.357C24.3985 14.9821 23.5507 15.3333 22.6666 15.3333C21.7826 15.3333 20.9347 14.9821 20.3096 14.357C19.6845 13.7319 19.3333 12.884 19.3333 12C19.3333 11.1159 19.6845 10.2681 20.3096 9.64297C20.9347 9.01785 21.7826 8.66666 22.6666 8.66666ZM14 0.666656C15.4144 0.666656 16.771 1.22856 17.7712 2.22875C18.7714 3.22895 19.3333 4.5855 19.3333 5.99999C19.3333 7.41448 18.7714 8.77103 17.7712 9.77123C16.771 10.7714 15.4144 11.3333 14 11.3333C12.5855 11.3333 11.2289 10.7714 10.2287 9.77123C9.22853 8.77103 8.66663 7.41448 8.66663 5.99999C8.66663 4.5855 9.22853 3.22895 10.2287 2.22875C11.2289 1.22856 12.5855 0.666656 14 0.666656Z" fill="white"/>
</svg>
